# xmcd
#
# Track frame offsets: 
#        150
#        19693
#        35251
#        54306
#        69251
#        83820
#        98140
#        112305
#        130817
#        148298
#        164107
#        179860
#        199068
#        213930
#        234601
#        251636
#        270106
#        282948
#        297726
#        316931
#        337672
#
# Disc length: 4713 seconds
#
# Revision: 0
# Processed by: cddbd v1.5.2PL0 Copyright (c) Steve Scherf et al.
# Submitted via: ExactAudioCopy v1.0b3
#
DISCID=3f126715
DTITLE=T.A.T.u. - 200 km_h In The Wrong Lane
DYEAR=2002
DGENRE=Pop
TTITLE0=Not gonna get us
TTITLE1=All the thing she said
TTITLE2=Show me love
TTITLE3=30 minutes
TTITLE4=How soon is now
TTITLE5=Cowns
TTITLE6=Malchic gay
TTITLE7=Stars
TTITLE8=Простые движения
TTITLE9=Клоуны
TTITLE10=Я сошла с ума
TTITLE11=Я твой враг
TTITLE12=Мальчик-гей
TTITLE13=Нас не догонят
TTITLE14=Робот
TTITLE15=Скажи зачем
TTITLE16=Я не глотаю
TTITLE17=полчаса
TTITLE18=Я твоя не первая
TTITLE19=Досчитай до ста
TTITLE20=Ясошла с ума....какая досада (freat. Фрекен Бок)
EXTD=
EXTT0=
EXTT1=
EXTT2=
EXTT3=
EXTT4=
EXTT5=
EXTT6=
EXTT7=
EXTT8=
EXTT9=
EXTT10=
EXTT11=
EXTT12=
EXTT13=
EXTT14=
EXTT15=
EXTT16=
EXTT17=
EXTT18=
EXTT19=
EXTT20=
PLAYORDER=
